<?xml version="1.0" encoding="utf-8"?>
<!-- Generator: Adobe Illustrator 27.5.0, SVG Export Plug-In . SVG Version: 6.00 Build 0)  -->
<svg version="1.1" xmlns="http://www.w3.org/2000/svg" xmlns:xlink="http://www.w3.org/1999/xlink" x="0px" y="0px"
	 viewBox="0 0 750 500" style="enable-background:new 0 0 750 500;" xml:space="preserve">
<g id="BACKGROUND">
	<rect id="XMLID_1_" style="fill:#FFFFFF;" width="750" height="500"/>
</g>
<g id="OBJECTS">
	<g>
		<ellipse style="opacity:0.2;fill:#6A3253;" cx="104.857" cy="429.723" rx="60.537" ry="7.981"/>
		<g>
			<g>
				<path style="fill:#FF6257;" d="M91.638,364.75l-22.1,16.29c0,0-2.43,12.02-4.92,17.58c-1.13,2.53-2.27,3.73-3.2,1.84
					c-2.95-6.05-8.35-22.62-8.35-22.62l1.21-1.52l15.26-19.07L91.638,364.75z"/>
				<path style="fill:#FF6257;" d="M127.38,327.715l-26.323,1.493c0,0-8.734,15.083-11.255,21.32
					c-2.521,6.237,19.872-6.923,19.872-6.923l26.886,5.56"/>
				<path style="fill:#451378;" d="M154.178,337.58c0,3.17-0.87,5.7-2.33,7.65c-5.64,7.63-20.02,6.58-25.12,1.49
					c-6.4-6.41-15.09-27.9-15.09-27.9s-2.75,23.79-9.61,38.43c-6.86,14.64-26.08,12.35-32.03,6.41c-2.13-2.13-2.47-6.93-1.57-13.55
					c1.62-11.87,7.25-29.56,13.71-48.07c-3.29-17.67,3.8-21.48,3.8-21.48h44.45c0,0,1.83,3.18,4.47,8.12
					C141.748,301.55,154.178,326.33,154.178,337.58z"/>
				<path style="opacity:0.2;fill:#6A3253;" d="M134.859,288.68c-13.73,10.04-36.61,3.77-39.9,3.77c-3.83,0-7.03,5.97-2.64,13.75
					c-7.95,8.12-18.35,31.39-23.89,43.91c1.62-11.87,7.25-29.56,13.71-48.07c-3.29-17.67,3.8-21.48,3.8-21.48h44.45
					C130.388,280.56,132.218,283.74,134.859,288.68z"/>
				<path style="fill:#FEDC4A;" d="M173.329,197.41c-2.84,25.01-24.97,36.74-40.58,39.61c2.32,5.42,9.29,27.2,6.91,37.75
					c-0.78,3.48-2.59,5.74-5.91,5.79c0,6.37-52.52,11.65-50.46-0.19c-5.67,1.54-9.27-0.67,0-39.8
					c-13.55,2.62-27.83,27.5-31.85,34.98c-0.72,1.34-1.11,2.12-1.11,2.12s0,0-10.3-5.66c1.52-27.54,20.6-48.21,44.8-56.16
					c16.98-5.58,42.83-3.97,42.83-3.97c31.84-1.03,31.33-36.17,31.33-36.17s4.63-3.09,12.36,0
					C173.538,183.85,174.058,191.06,173.329,197.41z"/>
				<path style="opacity:0.2;fill:#6A3253;" d="M139.658,274.77c-0.78,3.48-2.59,5.74-5.91,5.79c0,6.37-52.52,11.65-50.46-0.19
					c-5.67,1.54-9.27-0.67,0-39.8c-13.55,2.62-27.83,27.5-31.85,34.98l-1.18-3.56c0,0,9.83-34.81,37.24-38.47
					C81.879,259.86,102.008,293.5,139.658,274.77z"/>
				<path style="fill:#FFBC18;" d="M123.599,214.46c-1.2,4.09-23.82,6.02-26.94,2.17c-3.13-3.85,0-11.31,0-11.31l23.74-1.69
					C120.398,203.63,124.808,210.37,123.599,214.46z"/>
				<path style="fill:#FFCB9F;" d="M40.031,272.009c0,0-4.211,12.794-3.2,17.022c1.011,4.229,3.2-1.609,3.2-1.609
					s-0.901,9.246,1.338,8.748c2.239-0.498,3.155-6.245,3.155-6.245s0.496,8.136,2.238,7.639c1.741-0.497,2.24-6.893,2.24-6.893
					s2.675,6.798,4.168,5.803c1.493-0.995-1.68-12.385-1.68-12.385s3.98,2.602,5.224,1.109c1.244-1.493-6.383-7.525-6.383-7.525
					L40.031,272.009z"/>
				<path style="fill:#FFCB9F;" d="M158.986,175.712c0,0-7.748-11.904-6.753-14.391c0.995-2.488,5.473,2.862,5.473,2.862
					s-3.234-17.041-0.497-17.787c2.736-0.746,3.731,10.448,3.731,10.448s-0.498-9.275,1.99-10.483
					c2.488-1.208,2.488,11.976,2.488,11.976s0.746-9.95,2.736-9.452c1.99,0.497,0.995,12.114,0.995,12.114s1.492-7.139,2.985-6.392
					c1.492,0.746-0.788,21.107-0.788,21.107H158.986z"/>
			</g>
			<path style="fill:#FFBC18;" d="M40.031,266.134c-0.641,1.229-1.296,5.717-0.948,6.76c0.348,1.043,10.89,5.883,12.768,5.007
				c1.878-0.876,4.131-4.471,3.255-5.892C54.229,270.588,40.652,264.944,40.031,266.134z"/>
			<path style="fill:#FFBC18;" d="M156.123,173.628c-0.253,1.154-0.25,4.006,0.751,4.632c1.001,0.626,16.258,1.377,16.766,0
				c0.508-1.377,1.119-5.383,0-6.384C172.521,170.874,156.428,172.236,156.123,173.628z"/>
			<polyline style="fill:#FFBC18;" points="107.952,215.566 110.031,240.272 117.365,238.939 113.029,215.329 			"/>
			<path style="fill:#FFFFFF;" d="M113.124,224.764c0,0.618-0.501,1.119-1.119,1.119c-0.618,0-1.119-0.501-1.119-1.119
				s0.501-1.119,1.119-1.119C112.623,223.645,113.124,224.146,113.124,224.764z"/>
			<path style="fill:#FFFFFF;" d="M113.798,230.315c0,0.618-0.501,1.119-1.119,1.119c-0.618,0-1.119-0.501-1.119-1.119
				c0-0.618,0.501-1.119,1.119-1.119C113.297,229.197,113.798,229.697,113.798,230.315z"/>
			<path style="fill:#FFFFFF;" d="M114.471,235.867c0,0.618-0.501,1.119-1.119,1.119c-0.618,0-1.119-0.501-1.119-1.119
				c0-0.618,0.501-1.119,1.119-1.119C113.97,234.748,114.471,235.249,114.471,235.867z"/>
			<path style="opacity:0.2;fill:#6A3253;" d="M120.398,203.63c-10.33,8.19-23.74,1.69-23.74,1.69L120.398,203.63z"/>
			<path style="fill:#7FBDD9;" d="M123.938,163.87c0,0,10.49,15.71-3.22,22.2l-13.25,5.42l-7.93,3.24c0,0-11.06,1.69-13.47-7.46
				c-2.4-9.14-5.05-25.5-3.61-26.22c0.41-0.21,1.03-0.29,1.7-0.31c1.64-0.06,3.6,0.31,3.6,0.31s5.29-11.31,8.66-11.31
				c3.36,0,1.92,4.57,1.92,4.57s9.62-13.71,15.16-12.02c5.53,1.68,3.13,10.58,3.13,10.58s8.9-6.01,11.3-3.61
				C130.339,151.67,123.938,163.87,123.938,163.87z"/>
			<path style="opacity:0.2;fill:#6A3253;" d="M107.468,191.49l-7.93,3.24c0,0-11.06,1.69-13.47-7.46
				c-2.4-9.14-5.05-25.5-3.61-26.22c0.41-0.21,1.03-0.29,1.7-0.31c0.4,12.03,18.75,20.72,18.75,20.72L107.468,191.49z"/>
			<path style="fill:#FFBC8D;" d="M115.284,205.698l-1.788-5.913h-10.586v6.26l1.24,0.147c3.569,0.423,7.183,0.284,10.709-0.411
				L115.284,205.698z"/>
			<path style="fill:#FFCB9F;" d="M97.366,185.247c0,0-4.595-7.101-7.185-4.527c-2.591,2.574-0.923,8.163,1.378,9.281
				c2.301,1.118,4.707-0.699,4.707-0.699s1.724,9.244,9.89,12.132c7.632,2.699,14.435-1.159,17.162-11.77
				c2.466-9.599-1.881-22.597-9.271-25.481c-2.409,11.86-13.161,9.653-13.161,9.653l0.321,10.107L97.366,185.247z"/>
			<g>
				<path style="fill:none;stroke:#FF9578;stroke-linecap:round;stroke-miterlimit:10;" d="M114.026,178.717
					c0,0-0.021,3.663,2.278,6.84c0.76,1.05-3.138,2.596-3.138,2.596"/>
				<path style="fill:#3F214E;" d="M108.938,182.225c0.056,0.768-0.522,1.435-1.289,1.491c-0.768,0.056-1.435-0.521-1.491-1.289
					c-0.056-0.768,0.521-1.435,1.289-1.491C108.215,180.881,108.882,181.458,108.938,182.225z"/>
				<path style="fill:#3F214E;" d="M120.861,181.361c0.056,0.768-0.521,1.435-1.289,1.49c-0.768,0.056-1.435-0.521-1.491-1.289
					c-0.056-0.768,0.521-1.435,1.289-1.491C120.138,180.016,120.805,180.594,120.861,181.361z"/>
				<path style="fill:none;stroke:#3F214E;stroke-linecap:round;stroke-miterlimit:10;" d="M104.437,178.811
					c0,0,2.218-2.925,5.395-1.833"/>
				<path style="fill:none;stroke:#3F214E;stroke-linecap:round;stroke-miterlimit:10;" d="M117.17,177.616
					c0,0,2.898-1.472,4.634,0.926"/>
				<path style="fill:#FFFFFF;" d="M109.832,188.889c0,0,3.177,0.544,7.964,0.972C114.608,194.331,109.711,191.474,109.832,188.889z
					"/>
				<path style="fill:#FF629F;" d="M106.431,185.712c0.049,0.668-0.454,1.25-1.123,1.298c-0.668,0.049-1.25-0.454-1.298-1.123
					c-0.048-0.669,0.454-1.25,1.123-1.298C105.801,184.541,106.382,185.044,106.431,185.712z"/>
				<path style="fill:#FF629F;" d="M122.788,184.526c0.048,0.669-0.454,1.25-1.123,1.298c-0.668,0.048-1.25-0.454-1.298-1.123
					c-0.048-0.669,0.454-1.25,1.123-1.298C122.158,183.355,122.74,183.858,122.788,184.526z"/>
			</g>
			<path style="fill:none;stroke:#FF9578;stroke-linecap:round;stroke-miterlimit:10;" d="M90.391,183.72
				c0,0,0.306-1.838,1.973-1.701c1.667,0.136,1.837,3.027,1.837,3.027s-2.619,1.769-0.816,3.605"/>
			<path style="fill:none;stroke:#FF9578;stroke-linecap:round;stroke-miterlimit:10;" d="M159.995,164.182
				c0,0,5.32-2.016,7.981,2.667"/>
			<path style="fill:#451378;" d="M64.618,398.62c-1.13,2.53-2.27,3.73-3.2,1.84c-2.95-6.05-8.35-22.62-8.35-22.62l1.21-1.52
				L64.618,398.62z"/>
			
				<line style="fill:none;stroke:#451378;stroke-linecap:round;stroke-miterlimit:10;" x1="72.353" y1="372.433" x2="78.335" y2="376.052"/>
			
				<line style="fill:none;stroke:#451378;stroke-linecap:round;stroke-miterlimit:10;" x1="70.373" y1="376.32" x2="73.992" y2="379.318"/>
			
				<line style="fill:none;stroke:#451378;stroke-linecap:round;stroke-miterlimit:10;" x1="115.976" y1="340.945" x2="114.709" y2="346.374"/>
			
				<line style="fill:none;stroke:#451378;stroke-linecap:round;stroke-miterlimit:10;" x1="120.319" y1="342.393" x2="120.319" y2="347.279"/>
			<path style="opacity:0.2;fill:#6A3253;" d="M151.848,345.23c-5.64,7.63-20.02,6.58-25.12,1.49c-6.4-6.41-15.09-27.9-15.09-27.9
				l3.07-16.06C114.708,302.76,130.258,346.93,151.848,345.23z"/>
			<path style="opacity:0.2;fill:#6A3253;" d="M173.329,197.41c-2.84,25.01-24.97,36.74-40.58,39.61l-1.01-7.82
				C131.738,229.2,164.128,225.14,173.329,197.41z"/>
			<path style="fill:#FFBC18;" d="M92.377,235.449h10.47c0,0,2.827,8.478-4.499,13.364C91.137,246.46,92.377,235.449,92.377,235.449
				z"/>
			<path style="opacity:0.2;fill:#6A3253;" d="M101.356,157.076c0,0,3.081-9.175,10.649-10.795"/>
			<path style="opacity:0.2;fill:#6A3253;" d="M107.468,160.997c0,0,6.812-8.126,14.941-7.106"/>
		</g>
	</g>
	<g>
		<ellipse style="opacity:0.2;fill:#6A3253;" cx="287.216" cy="429.723" rx="60.537" ry="7.981"/>
		<g>
			<g>
				<path style="fill:#FFBC18;" d="M301.208,138.04l-11.44,4.59l-3.27,1.32c0,0-18.3,11.7-27.86-9.95
					c-14.63,10.29-36.58,1.34-31.26-24.29c-20.01-6.94-20.36-38.58,0.03-45.82c3.32-1.18,7.19-1.72,11.61-1.39
					c6.32-13.63,26.5-4.99,24.89,9.31c20.01-10.31,16.4,28.3,36.52,27.02C320.548,97.55,324.488,140.75,301.208,138.04z"/>
				<path style="fill:#FF9E18;" d="M289.768,142.63l-3.27,1.32c0,0-18.3,11.7-27.86-9.95c-14.63,10.29-36.58,1.34-31.26-24.29
					c-20.01-6.94-20.36-38.58,0.03-45.82c-5.22,6.75-15.18,22.99,1.92,31.48c-1.55,6.25,4.88,10.9,12.64,7.8
					c-5.54,14.41,16.71,36.41,36.73,29.95C285.298,137.03,288.408,140.62,289.768,142.63z"/>
				<path style="fill:#FF6257;" d="M328.658,205.2c5.98,5.72,2.18,11.78,2.18,11.78l-53.61,3.61c0,0-4.64,0-2.1-8.77
					c-2.27-9.46-5.8-24.32-7.73-32.84c-26.04-17.12-28.67-35.71-25.24-49.56c3.13-12.66,11.31-21.35,11.31-21.35l12.44,6.43
					c0,0-17.8,40.18,26.3,42.19c44.1,2,30.67-55.05,30.67-55.05h11.5c5.65,13.87,7.93,25.3,8.14,34.67
					c0.67,29.7-19.48,38.66-19.48,38.66l0.01,0.01c0.18,0.65,6.41,22.54,5.6,30.21L328.658,205.2z"/>
				<path style="opacity:0.2;fill:#6A3253;" d="M330.839,216.98l-53.61,3.61c0,0-4.64,0-2.1-8.77c-2.27-9.46-5.8-24.32-7.73-32.84
					c-26.04-17.12-28.67-35.71-25.24-49.56c2.9,12.89,11.95,41.44,35.99,48.29c-0.27,12.92,9.16,27.4,29.06,30.14
					c-7.47-7.34-12.67-12.85-12.98-13.18c0.58,0.4,14.08,9.69,34.43,10.53C334.638,210.92,330.839,216.98,330.839,216.98z"/>
				<path style="fill:#3F214E;" d="M360.858,272.89c-0.92,13.95-55.54,48.36-55.54,48.36l-4.61-8.73l-2.58-4.89l29.09-35.51
					l-19.55-24.87c0,0-42.1,55.27-55.01,50.24c-12.91-5.03-30.6-50.24-30.6-50.24l11.91-8.12l23.18,28.64
					c6.31-25.23,20.08-47.18,20.08-47.18c24.44-3.93,53.61-3.61,53.61-3.61S362.048,254.58,360.858,272.89z"/>
				<polygon style="opacity:0.2;fill:#6A3253;" points="339.258,268.89 300.708,312.52 298.129,307.63 327.218,272.12 
					307.669,247.25 314.648,236.67 				"/>
				<path style="fill:#FFCB9F;" d="M253.469,108.067c0,0,5.279-14.609,6.934-14.333c1.655,0.276-0.414,7.165-0.414,7.165
					s3.31-11.44,5.102-11.164c1.793,0.276-1.517,12.963-1.517,12.963s4.827-11.584,6.482-10.895c1.655,0.69-2.896,11.86-2.896,11.86
					s4.689-8.964,6.206-8.136c1.517,0.827-4.413,11.752-4.413,11.752s4.965-1.625,5.378,0c0.414,1.625-8.423,7.218-8.423,7.218
					L253.469,108.067z"/>
				<path style="fill:#FFCB9F;" d="M322.874,101.637c0,0-6.344-10.248-5.102-12.592c1.241-2.344,5.102,3.723,5.102,3.723
					s-3.723-13.652-1.655-14.48c2.069-0.827,3.723,9.515,3.723,9.515s-0.965-12.963,1.241-13.377c2.206-0.414,3.31,11.86,3.31,11.86
					s0.414-9.791,2.206-9.653c1.793,0.138,1.103,11.393,1.103,11.393s1.517-9.049,3.448-8.635
					c1.931,0.414-1.874,22.245-1.874,22.245"/>
				<path style="fill:#FFCB9F;" d="M299.798,174.34c-19.13-7.05-22.62-20.5-22.62-20.5l2.2-0.16l5.73-0.43l2.13-8.96h11.31v8.99
					l6.76,0.39l3.36,0.2C308.669,153.87,311.178,162.19,299.798,174.34z"/>
				<path style="fill:#FFCB9F;" d="M281.168,132.33c0,0-5.277-6.61-7.599-3.792c-2.322,2.818-0.108,8.215,2.292,9.098
					c2.401,0.884,4.614-1.162,4.614-1.162s0.187,9.417,8.599,11.479c7.862,1.928,16.695-2.974,18.355-13.804
					c1.501-9.797-4.114-22.299-11.754-24.435C293.127,129.039,281.168,132.33,281.168,132.33z"/>
				<path style="fill:#60ADD0;" d="M233.968,239.13l-11.91,8.12l-4.33-9.85c0,0-13.17,4.3-13.74,2.28
					c-0.35-1.23,7.84-6.52,14.27-10.45c4.1-2.5,7.49-4.46,7.49-4.46l2.84,4.97L233.968,239.13z"/>
				<path style="fill:#60ADD0;" d="M300.308,324.85c0,0,0.5,16.94-2.05,17.22c-1.72,0.18-6.77-11.36-9.87-18.89
					c-1.5-3.63-2.54-6.32-2.54-6.32l5.57-4.19l6.71-5.04l7.19,13.62L300.308,324.85z"/>
			</g>
			<g>
				<path style="fill:#3F214E;" d="M292.102,128.199c0.109,0.762-0.421,1.468-1.183,1.576c-0.762,0.109-1.468-0.421-1.576-1.183
					c-0.109-0.762,0.421-1.468,1.183-1.576C291.288,126.908,291.994,127.438,292.102,128.199z"/>
				<path style="fill:#3F214E;" d="M303.937,127.904c0.109,0.762-0.421,1.468-1.183,1.576c-0.762,0.109-1.468-0.421-1.576-1.183
					c-0.109-0.762,0.421-1.468,1.183-1.576C303.122,126.613,303.828,127.143,303.937,127.904z"/>
				<path style="fill:none;stroke:#3F214E;stroke-linecap:round;stroke-miterlimit:10;" d="M287.375,125.105
					c0,0,2.01-3.072,5.255-2.203"/>
				<path style="fill:none;stroke:#3F214E;stroke-linecap:round;stroke-miterlimit:10;" d="M299.995,123.921
					c0,0,2.789-1.669,4.687,0.603"/>
				<path style="fill:#FF6257;" d="M300.638,135.2c-2.87,4.68-7.95,2.17-8.01-0.42c0,0,0.4,0.04,1.14,0.1
					c1.2,0.09,3.28,0.23,5.94,0.3C300.008,135.19,300.319,135.19,300.638,135.2z"/>
				<path style="fill:#FF629F;" d="M289.843,131.852c0.095,0.663-0.367,1.278-1.03,1.373c-0.664,0.095-1.278-0.367-1.373-1.03
					c-0.095-0.663,0.367-1.278,1.03-1.373C289.134,130.727,289.748,131.188,289.843,131.852z"/>
				<path style="fill:#FF629F;" d="M306.079,131.419c0.095,0.664-0.367,1.278-1.03,1.373c-0.664,0.095-1.278-0.366-1.373-1.03
					c-0.095-0.664,0.366-1.278,1.03-1.373C305.369,130.295,305.984,130.756,306.079,131.419z"/>
			</g>
			<polygon style="fill:#FEDC4A;" points="220.027,247.252 234.668,236.672 237.799,241.092 222.514,252.234 			"/>
			<polygon style="fill:#FEDC4A;" points="295.585,307.015 305.32,323.809 311.134,321.249 299.828,302.692 			"/>
			<polygon style="fill:#FEDC4A;" points="274.888,233.52 289.329,227.8 290.723,231.434 274.888,237.02 			"/>
			<path style="opacity:0.2;fill:#6A3253;" d="M323.038,174.97l-2.593-8.121c0,0,15.793-13.079,22.073-30.539
				C343.188,166.01,323.038,174.97,323.038,174.97z"/>
			<path style="fill:#3F214E;" d="M299.798,174.34c-19.13-7.05-22.62-20.5-22.62-20.5l2.2-0.16c1.79,2.76,8.219,9.378,16.189,8.558
				c7.18-0.75,8.761-5.738,9.741-8.568l3.36,0.2C308.669,153.87,311.178,162.19,299.798,174.34z"/>
			<path style="fill:#FFBC8D;" d="M289.329,147.396c0,0,4.105,1.441,8.133,0C294.84,151.719,290.469,150.389,289.329,147.396z"/>
			<path style="fill:none;stroke:#FF9578;stroke-linecap:round;stroke-miterlimit:10;" d="M259.292,106.861
				c0,0,4.946-3.104,8.156,0.842"/>
			<path style="fill:none;stroke:#FF9578;stroke-linecap:round;stroke-miterlimit:10;" d="M324.537,93.128
				c0,0,6.367-1.684,7.84,3.841"/>
			<path style="fill:none;stroke:#FF9578;stroke-linecap:round;stroke-miterlimit:10;" d="M297.463,125.78v4.656
				c0,0,2.591,1.059,0.559,2.801"/>
			<path style="fill:#FFFFFF;" d="M299.708,135.18c-0.36,0.44-1.19,0.95-3.07,0.88c-1.89-0.07-2.61-0.68-2.87-1.18
				C294.968,134.97,297.048,135.11,299.708,135.18z"/>
			<path style="fill:none;stroke:#FF9578;stroke-linecap:round;stroke-miterlimit:10;" d="M274.056,131.591
				c0,0,0.332-2.226,2.106-1.856c1.773,0.369,1.829,3.502,1.829,3.502s-2.623,1.169-0.813,3.064"/>
			<circle style="fill:#FFFFFF;" cx="277.417" cy="140.431" r="2.168"/>
			<path style="fill:#3F214E;" d="M228.589,229.74c-3.88,2.1-7.91,0.75-10.33-0.51c4.1-2.5,7.49-4.46,7.49-4.46L228.589,229.74z"/>
			<path style="fill:#3F214E;" d="M288.388,323.18c-1.5-3.63-2.54-6.32-2.54-6.32l5.57-4.19
				C292.319,315.43,292.988,320.21,288.388,323.18z"/>
		</g>
	</g>
	<g>
		<ellipse style="opacity:0.2;fill:#6A3253;" cx="469.575" cy="429.723" rx="60.537" ry="7.981"/>
		<g>
			<path style="fill:#451378;" d="M486.218,314.77c0,0-1.72,1.94-4.61,4.93c-8.96,9.31-29.17,28.76-43.38,31.14
				c-1.33,0.22-2.6,0.3-3.8,0.2c-18.31-1.45-18.13-79.16-18.13-79.16l42.84,0.33l-3.09,14.58l-6.82,32.12l25.72-10.19l5.55-2.2
				L486.218,314.77z"/>
			<path style="opacity:0.2;fill:#6A3253;" d="M481.608,319.7c-8.96,9.31-29.17,28.76-43.38,31.14
				c10.51-15.85,1.27-62.83,1.27-62.83l16.55-1.22l-6.82,32.12l25.72-10.19L481.608,319.7z"/>
			<path style="fill:#451378;" d="M434.987,270.922c0,0,16.024,60.416,51.177,72.426c19.734,6.743,41.639-34.585,41.639-34.585
				l-9.537-9.592l-24.511,15.882l-12.984-26.664c0,0,0.802-10.932-9.357-19.494"/>
			<path style="fill:#3F214E;" d="M481.319,189.28l-2.58-1.49l1.35-2.81l-2.65,2.06l-1.51-0.87l1.52-3.47l-3.28,2.46l-25.36-14.64
				l-5.2-3.98l1.08-5.69c0,0-1.64,2.67-2.74,4.41l-3.55-2.71c0,0,4.8-12.63,14.06-20.49c13.94-11.83,36.36-5.12,39.18,16.57
				C493.629,173.89,481.319,189.28,481.319,189.28z"/>
			<path style="fill:#60ADD0;" d="M471.419,268.89c-1.19,3.17-48.56,10.28-54.65,3.34c-3.79-4.33-4.54-10.43-4.02-17.68
				c1.04-14.75,7.29-34.21,3.55-52.95c-11.88-47.01,4.14-90.65,4.14-90.65s10.5,3.57,12.86,6.19c-7.16,31.19,3.92,66.55,3.92,66.55
				s21.1,7.03,30.62,20.51c1.83,2.59,3.14,6.47,4.04,11.06C475.669,234.52,472.379,266.34,471.419,268.89z"/>
			<path style="opacity:0.2;fill:#6A3253;" d="M471.419,268.89c-1.19,3.17-48.56,10.28-54.65,3.34c-3.79-4.33-4.54-10.43-4.02-17.68
				c5.84,4.98,21.17,15.76,38.32,9.45c21.32-7.85,3.95-42.66,20.81-48.74C475.669,234.52,472.379,266.34,471.419,268.89z"/>
			<path style="fill:#60ADD0;" d="M521.859,222.95c0,0-16.3,30.7-31.07,36.85c-10.35,4.3-23.94-0.6-29.54-32.48l-24.03-43.63
				c0,0,34.21,3.11,42.36,18.13c2.97,5.47,5.13,10.97,6.66,15.76c2.71,8.36,3.53,14.54,3.53,14.54l21.39-19.74L521.859,222.95z"/>
			<path style="fill:#FFCB9F;" d="M469.169,192.46c0,0-1.55,2.79-5.01,5.2c-1.12,0.79-2.44,1.53-3.98,2.12
				c-3.46,1.35-8.02,1.94-13.81,0.53c-3.62-0.88-5.87-2.84-7.26-5.12c-0.47-0.77-0.84-1.59-1.13-2.41
				c-1.57-4.45-0.76-9.09-0.76-9.09l5.9,0.84l2.63,0.38l2.54,0.36l0.56-0.92l0.05-0.1l4.39-7.25l13.71,1.1l-3.98,9.5l-0.14,0.35
				l-0.56,1.33l2.43,1.13l2.28,1.06L469.169,192.46z"/>
			<path style="fill:#3F214E;" d="M445.748,184.91l-6.64,10.28c-0.47-0.77-0.84-1.59-1.13-2.41l5.14-8.25L445.748,184.91z"/>
			<path style="fill:#3F214E;" d="M467.028,191.47l-2.87,6.19c-1.12,0.79-2.44,1.53-3.98,2.12l4.57-9.37L467.028,191.47z"/>
			<path style="fill:#FFCB9F;" d="M481.304,172.442c-0.767-3.803-9.018-0.247-9.018-0.247l6.378-10.952l-7.597-4.723l1.155-4.962
				l-3.759,3.344l-2.327-1.447l2.011-6.883l-4.951,5.056l-1.71-1.063l2.951-7.305l-5.395,5.786l-2.659-1.653
				c-4.195,3.258-7.793,8.182-9.619,13.371c-3.862,10.98,1.965,19.992,10.297,22.118c8.915,2.275,13.8-6.457,13.8-6.457
				s1.051,3.025,3.743,3.397C477.296,180.194,482.07,176.244,481.304,172.442z"/>
			<path style="fill:#FFCB9F;" d="M420.435,110.953c0,0,3.245-19.624,5.298-19.811c2.053-0.187,0.852,8.821,0.852,8.821
				s2.074-10.086,4.024-10.083c1.949,0.003,0.643,10.536,0.643,10.536s2.613-12.4,4.667-11.654
				c2.053,0.747-1.307,13.067-1.307,13.067s4.293-10.827,5.787-9.894c1.493,0.933-3.93,12.703-3.93,12.703s4.907-2.72,5.936-0.853
				c1.029,1.867-6.686,7.573-6.686,7.573l-2.418,5.782L420.435,110.953z"/>
			<path style="fill:#FFCB9F;" d="M511.163,212.383l3.791-5.626c0,0-2.44-9.965,0-11.185s3.661,7.118,3.661,7.118
				s5.964-11.165,7.388-10.961c1.423,0.203-2.304,10.961-2.304,10.351c0-0.61,5.534-10.071,6.958-8.585
				c1.424,1.486-3.907,10.822-3.907,10.822s6.137-7.206,7.56-5.783c1.423,1.424-6.137,10.867-6.137,10.867s5.502-5.733,6.315-4.309
				c0.813,1.424-12.629,17.857-12.629,17.857L511.163,212.383z"/>
			<path style="fill:#FEDC4A;" d="M547.218,302.74l-10.6-1.23l-3.82-0.45l-5,7.7l-9.53-9.59l11.34-9.83l1.54-1.33
				C531.148,288.01,548.888,297.77,547.218,302.74z"/>
			<path style="fill:none;stroke:#FF9578;stroke-linecap:round;stroke-miterlimit:10;" d="M460.889,156.188
				c0,0-4.235,3.418-6.266,6.702c-0.682,1.103,4.135,1.382,4.135,1.382"/>
			<path style="fill:#3F214E;" d="M463.971,161.545c-0.381,0.669-0.147,1.52,0.522,1.9c0.669,0.381,1.52,0.147,1.9-0.522
				c0.381-0.669,0.147-1.52-0.522-1.9C465.202,160.643,464.351,160.876,463.971,161.545z"/>
			<path style="fill:#3F214E;" d="M453.581,155.632c-0.381,0.669-0.147,1.52,0.522,1.9c0.669,0.381,1.52,0.147,1.9-0.522
				c0.381-0.669,0.147-1.52-0.522-1.9C454.813,154.729,453.962,154.963,453.581,155.632z"/>
			<path style="fill:none;stroke:#3F214E;stroke-linecap:round;stroke-miterlimit:10;" d="M469.134,160.853
				c0,0-0.775-2.343-3.478-2.636"/>
			<path style="fill:none;stroke:#3F214E;stroke-linecap:round;stroke-miterlimit:10;" d="M458.525,153.841
				c0,0-1.49-2.009-4.022-1.405"/>
			<path style="fill:#3F214E;" d="M459.682,167.105c-0.219,0.539-0.679,0.973-1.274,1.27c-1.448,0.739-3.688,0.617-5.116-1.056
				c-0.572-0.665-1.007-1.567-1.219-2.767C456.578,166.236,459.682,167.105,459.682,167.105z"/>
			<path style="fill:#FF629F;" d="M464.732,165.772c-0.331,0.583-0.128,1.324,0.454,1.655c0.583,0.332,1.324,0.128,1.655-0.454
				c0.332-0.583,0.128-1.324-0.454-1.655C465.805,164.986,465.064,165.189,464.732,165.772z"/>
			<path style="fill:#FF629F;" d="M450.479,157.659c-0.332,0.582-0.128,1.324,0.454,1.655c0.583,0.332,1.324,0.128,1.655-0.454
				c0.331-0.583,0.128-1.324-0.454-1.655C451.552,156.873,450.811,157.077,450.479,157.659z"/>
			<path style="fill:#FF6257;" d="M458.408,168.375c-1.448,0.739-3.688,0.617-5.116-1.056
				C454.741,166.661,456.846,166.265,458.408,168.375z"/>
			<path style="fill:none;stroke:#FF9578;stroke-linecap:round;stroke-miterlimit:10;" d="M479.09,174.951
				c0,0,0.835-2.451-1.426-2.964c-2.261-0.512-2.953,2.181-2.953,2.181s1.572,2.132-1,2.829"/>
			<path style="fill:none;stroke:#FF9578;stroke-linecap:round;stroke-miterlimit:10;" d="M433.74,105.424
				c0,0-6.428-2.666-8.463,1.842"/>
			<path style="fill:none;stroke:#FF9578;stroke-linecap:round;stroke-miterlimit:10;" d="M519.527,205.597
				c0,0,5.503,2.276,3.316,9.219"/>
			<path style="opacity:0.2;fill:#6A3253;" d="M461.623,283.737l12.036-4.323c0,0,8.218,11.198,2.057,14.299
				C466.431,298.386,461.623,283.737,461.623,283.737z"/>
			<path style="fill:#FFBC8D;" d="M453.086,181.231c0,0,6.521,3.503,10.702,0.131C458.535,188.209,453.399,183.693,453.086,181.231z
				"/>
			<path style="fill:#5D446A;" d="M479.537,143.259c0,0,10.948,5.893,7.401,18.815"/>
			<path style="fill:#5D446A;" d="M477.447,147.587c0,0,3.426,2.363,1.793,8.916"/>
			<path style="opacity:0.2;fill:#6A3253;" d="M424.953,226.695c0,0,0.857,18.051,24.56,23.253
				C440.35,243.952,424.953,226.695,424.953,226.695z"/>
			<path style="fill:#FEDC4A;" d="M447.639,207.337c0-2.49-2.018-4.508-4.508-4.508c-2.49,0-4.508,2.018-4.508,4.508
				c0,2.49,2.018,4.508,4.508,4.508C445.62,211.845,447.639,209.827,447.639,207.337z"/>
			<path style="fill:#FEDC4A;" d="M441.723,227.456c0-2.49-2.018-4.508-4.508-4.508c-2.49,0-4.508,2.018-4.508,4.508
				c0,2.49,2.018,4.508,4.508,4.508C439.704,231.964,441.723,229.946,441.723,227.456z"/>
			<path style="fill:#FEDC4A;" d="M439.896,252.962c0-2.49-2.018-4.508-4.508-4.508c-2.49,0-4.508,2.018-4.508,4.508
				c0,2.49,2.018,4.508,4.508,4.508C437.878,257.47,439.896,255.452,439.896,252.962z"/>
			<path style="fill:#3F214E;" d="M547.218,302.74l-10.6-1.23c0.86-2.76,1.851-5.646,1.851-5.646l-8.86-6.525l1.54-1.33
				C531.148,288.01,548.888,297.77,547.218,302.74z"/>
			<path style="opacity:0.2;fill:#6A3253;" d="M489.768,232.12l-6.18,4.55c0,0,1.77-9.72,2.65-19.09
				C488.948,225.94,489.768,232.12,489.768,232.12z"/>
		</g>
	</g>
	
		<line style="fill:none;stroke:#FFBC18;stroke-linecap:round;stroke-miterlimit:10;" x1="711.667" y1="370.75" x2="716.196" y2="369.151"/>
	<g>
		<ellipse style="opacity:0.2;fill:#6A3253;" cx="652.934" cy="429.723" rx="60.537" ry="7.981"/>
		<g>
			<g>
				<path style="fill:#3F214E;" d="M656.42,320.175h13.859c0,0,1.744,25.963-0.623,28.034c-2.367,2.071-8.285-10.06-8.285-10.06
					l-5.737-2.688L656.42,320.175z"/>
				<path style="fill:#3F214E;" d="M649.321,170.584c0,0,9.4,6.06,15.04-8.51c5.055-13.06,2.717-21.257,0.313-23.137
					c-2.403-1.88-8.46-0.627-8.46-0.627s-14.727-21.666-28.514-12.87c-13.787,8.796-4.994,21.619-4.994,21.619
					s-8.479,16.905,6.874,22.095"/>
				<path style="fill:#60ADD0;" d="M718.578,355c-2.79,2.26-5.14,4.08-7.07,5.53c-4.56,3.42-6.77,4.74-6.77,4.74
					s-20.5-16-36.89-43.46c-13.79-23.12-22.42-41.59-25.57-41.42c-3.16,0.16-30.4,24.19-29.06,27.8c1.34,3.61,43.2,11.99,43.2,11.99
					l-0.78,15.28c0,0-22-1.23-41.76-5.29c-13.98-2.88-26.84-7.17-30.02-13.46c-6.37-12.57,11.82-43.8,35.75-61.78
					c4.97-3.74,10.19-6.9,15.49-9.2l41.07,4.38c0,0,0.55,3.57,1.96,9.77c0.77,3.39,1.8,7.56,3.15,12.37
					c0.41,1.48,0.85,3.02,1.33,4.61C688.589,297.03,699.548,326.08,718.578,355z"/>
				<path style="opacity:0.2;fill:#6A3253;" d="M678.128,259.88c-27.91,14.28-51.42,0.18-58.52-4.95c4.97-3.74,10.19-6.9,15.49-9.2
					l41.07,4.38C676.168,250.11,676.718,253.68,678.128,259.88z"/>
				<path style="fill:#FF6257;" d="M710.938,181.14c-2.23,4.85-35.72,20.76-35.72,20.76s6.1,30.55,5.31,44.93
					c-0.11,2.13-0.38,3.91-0.84,5.18c-3.57,9.82-56.7,8.48-58.93,1.78c-2.24-6.7,3.78-36.36,3.78-36.36s-26.68,13.83-31.59,15.16
					c-2.33,0.64-6.91-4.78-11.08-10.65c-4.62-6.49-8.73-13.54-8.73-13.54l12.5-7.98l7.78,6.73c0,0,15.55-6.92,36.27-15.41
					c8.79-3.61,18.52-7.5,28.39-11.27c10.81-4.12,21.78-8.09,31.88-11.39l0.5-15.32l16.26-1.66c0,0,4.33,16.22,4.67,24.76
					C711.458,178.75,711.339,180.26,710.938,181.14z"/>
				<path style="fill:#FFBC18;" d="M658.078,180.47l-12.13,25.13l-16.26-13.86C638.478,188.13,648.208,184.24,658.078,180.47z"/>
				<path style="fill:#FFCB9F;" d="M706.717,152.099l-7.331-32.27c0,0,1.973-14.655,0-15.951c-1.973-1.296-1.973,5.665-1.973,5.665
					s-0.111-10.96-2.518-10.404c-2.407,0.555-1,8.923-1,8.923s-2.073-10.553-3.554-10.183s-0.889,11.664-0.889,11.664
					s-1.518-8.331-3.184-8.146c-1.666,0.185-0.519,13.145-0.519,13.145s-4.073-5.554-5.554-4.258
					c-1.481,1.296,6.48,11.293,6.48,11.293l3.782,32.181L706.717,152.099z"/>
				<path style="fill:#FFCB9F;" d="M585.643,200.423l-16.531-20.896c0,0,0.926-11.293-0.926-12.589
					c-1.851-1.296-2.526,7.553-2.526,7.553s-4.879-12.737-6.731-12.367c-1.851,0.37,1.851,8.702,1.851,8.702
					s-4.999-9.456-6.295-8.708c-1.296,0.747,3.703,10.375,3.703,10.375s-5.184-7.221-6.48-6.295
					c-1.296,0.926,4.073,9.072,4.073,9.072s-3.7-4.258-5.184-3.333c-1.484,0.926,9.812,14.071,9.812,14.071l12.732,22.396
					L585.643,200.423z"/>
				<polygon style="fill:#FFCB9F;" points="647.125,173.725 650.579,183.373 644.797,196.815 635.586,189.336 635.586,177.945 				
					"/>
				<path style="fill:#FFCB9F;" d="M652.963,161.605c0,0,4.312-7.797,7.221-5.281c2.91,2.516,1.564,8.512-0.773,9.854
					c-2.337,1.342-4.997-0.392-4.997-0.392s1.47,9.812-6.901,13.441c-7.824,3.391-19.942,1.6-23.58-9.354
					c-3.29-9.908,0.279-21.973,7.782-29.253c9.013,6.816,19.738,8.892,19.738,8.892l-1.377,11.331L652.963,161.605z"/>
				<path style="fill:#3F214E;" d="M718.583,354.998l9.066,12.444c0,0-17.168,20.051-20.932,17.573
					c-1.974-1.299,1.7-13.247,1.7-13.247l-3.674-6.501L718.583,354.998z"/>
			</g>
			<g>
				<path style="fill:none;stroke:#FF9578;stroke-linecap:round;stroke-miterlimit:10;" d="M635.073,153.596
					c0,0-2.887,2.629-3.016,6.548c-0.133,4.023,2.833,2.925,2.833,2.925"/>
				<path style="fill:#3F214E;" d="M639.744,157.643c-0.14,0.757,0.361,1.484,1.117,1.623c0.757,0.14,1.484-0.36,1.623-1.117
					c0.14-0.757-0.36-1.484-1.117-1.623C640.611,156.386,639.884,156.886,639.744,157.643z"/>
				<path style="fill:#3F214E;" d="M627.989,155.473c-0.14,0.757,0.361,1.484,1.117,1.623c0.757,0.14,1.484-0.361,1.623-1.117
					c0.14-0.757-0.361-1.483-1.117-1.623C628.855,154.216,628.128,154.717,627.989,155.473z"/>
				<path style="fill:none;stroke:#3F214E;stroke-linecap:round;stroke-miterlimit:10;" d="M644.594,154.744
					c0,0-1.883-3.151-5.161-2.415"/>
				<path style="fill:none;stroke:#3F214E;stroke-linecap:round;stroke-miterlimit:10;" d="M632.069,152.157
					c0,0-2.718-1.782-4.708,0.411"/>
				<path style="fill:#FFFFFF;" d="M638.933,164.798c0,0-3.186,0.49-7.98,0.836C634.065,170.158,639.01,167.385,638.933,164.798z"/>
				<path style="fill:#FF629F;" d="M641.853,161.384c-0.122,0.659,0.314,1.292,0.973,1.414c0.659,0.122,1.292-0.314,1.414-0.973
					c0.122-0.659-0.314-1.292-0.973-1.414C642.608,160.29,641.975,160.725,641.853,161.384z"/>
				<path style="fill:#FF629F;" d="M625.725,158.408c-0.122,0.659,0.314,1.292,0.973,1.414c0.659,0.122,1.292-0.314,1.414-0.973
					c0.122-0.659-0.314-1.292-0.973-1.414C626.48,157.313,625.847,157.748,625.725,158.408z"/>
			</g>
			<path style="fill:#FFBC8D;" d="M638.123,180.699c0,0,5.302,1.166,9.322-1.561C643.896,184.419,638.123,180.699,638.123,180.699z"
				/>
			<path style="fill:none;stroke:#FF9578;stroke-linecap:round;stroke-miterlimit:10;" d="M659.763,159.842
				c0,0-0.448-2.572-2.306-1.508c-1.858,1.064-1.345,3.562-1.345,3.562s3.086,0.939,1.473,2.755"/>
			<path style="fill:#3F214E;" d="M654.982,139.415c0,0,0.443-5.542,2.106-5.099c1.663,0.443-0.443,3.104-0.443,3.104
				s2.771-4.484,3.769-3.129c0.998,1.355-3.88,5.789-3.88,5.789"/>
			<path style="fill:#5D446A;" d="M652.211,146.62c0,0-19.016-2.993-21.258-15.851"/>
			<path style="fill:#5D446A;" d="M637.025,127.111c0,0,5.395,13.945,17.853,17.935"/>
			<path style="fill:none;stroke:#FF9578;stroke-linecap:round;stroke-miterlimit:10;" d="M563.904,176.192
				c0,0-3.889,1.744-2.592,5.779"/>
			<path style="fill:none;stroke:#FF9578;stroke-linecap:round;stroke-miterlimit:10;" d="M687.604,114.527
				c0,0,3.742-1.481,6.315,2.593"/>
			<path style="opacity:0.2;fill:#6A3253;" d="M680.528,246.83c-0.11,2.13-0.38,3.91-0.84,5.18c-3.57,9.82-56.7,8.48-58.93,1.78
				c-2.24-6.7,3.78-36.36,3.78-36.36s-26.68,13.83-31.59,15.16c-2.33,0.64-6.91-4.78-11.08-10.65c4.7,2.56,10.65,5.02,14.07,3.51
				c6.25-2.76,35.65-17.87,36.1-18.1c-0.28,0.69-12.01,29.33-4.93,39.03c7.16,9.81,39.2-31.5,41.05-31.12
				c1.85,0.38-19.29,33.52-19.29,33.52S668.968,257.23,680.528,246.83z"/>
			<path style="opacity:0.2;fill:#6A3253;" d="M710.938,181.14c-2.23,4.85-35.72,20.76-35.72,20.76l-1.32-10.17
				c0,0,24.33-6.34,37.49-14.87C711.458,178.75,711.339,180.26,710.938,181.14z"/>
			<path style="opacity:0.2;fill:#6A3253;" d="M711.508,360.53c-4.56,3.42-6.77,4.74-6.77,4.74s-20.5-16-36.89-43.46
				c-13.79-23.12-22.42-41.59-25.57-41.42c-3.16,0.16-30.4,24.19-29.06,27.8c0,0-7.45-3.14-4.79-8.47
				c2.66-5.34,31.21-28.72,35.23-27.84C647.359,272.69,678.988,338.27,711.508,360.53z"/>
			<polygon style="fill:#FFBC18;" points="653.607,317.863 651.908,336.571 655.905,337.671 658.104,317.863 			"/>
			<polygon style="fill:#FFBC18;" points="700.571,363.139 704.075,367.552 722.763,353.86 718.827,349.324 			"/>
			
				<line style="fill:none;stroke:#FFBC18;stroke-linecap:round;stroke-miterlimit:10;" x1="710.771" y1="367.552" x2="714.868" y2="365.27"/>
			
				<line style="fill:none;stroke:#FFBC18;stroke-linecap:round;stroke-miterlimit:10;" x1="659.681" y1="329.676" x2="659.681" y2="334.311"/>
			
				<line style="fill:none;stroke:#FFBC18;stroke-linecap:round;stroke-miterlimit:10;" x1="663.266" y1="329.676" x2="662.601" y2="335.172"/>
			<path style="opacity:0.2;fill:#6A3253;" d="M682.609,276.86c-7.92-1.38-11.71-6.51-11.71-6.51l10.38,1.9
				C681.688,273.73,682.128,275.27,682.609,276.86z"/>
			<path style="fill:#FFFFFF;" d="M648.868,210.206c0-0.786-0.637-1.424-1.424-1.424c-0.786,0-1.424,0.637-1.424,1.424
				s0.637,1.424,1.424,1.424C648.231,211.63,648.868,210.993,648.868,210.206z"/>
		</g>
	</g>
</g>
</svg>
